<svg id="eJeDMkuX3B01" xmlns="http://www.w3.org/2000/svg" xmlns:xlink="http://www.w3.org/1999/xlink" viewBox="0 0 830 700" shape-rendering="geometricPrecision" text-rendering="geometricPrecision" style="background-color:transparent">
<style><![CDATA[
#eJeDMkuX3B05_ts {animation: eJeDMkuX3B05_ts__ts 1100ms linear 1 normal forwards}@keyframes eJeDMkuX3B05_ts__ts { 0% {transform: translate(0px,0px) scale(0.3,0.3);animation-timing-function: cubic-bezier(0.33,0,0.1,1)} 63.636364% {transform: translate(0px,0px) scale(1,1)} 100% {transform: translate(0px,0px) scale(1,1)}} #eJeDMkuX3B06_tr {animation: eJeDMkuX3B06_tr__tr 1100ms linear 1 normal forwards}@keyframes eJeDMkuX3B06_tr__tr { 0% {transform: translate(0px,0px) rotate(180deg);animation-timing-function: cubic-bezier(0.33,0,0.1,1)} 63.636364% {transform: translate(0px,0px) rotate(0deg)} 100% {transform: translate(0px,0px) rotate(0deg)}} #eJeDMkuX3B011_ts {animation: eJeDMkuX3B011_ts__ts 1100ms linear 1 normal forwards}@keyframes eJeDMkuX3B011_ts__ts { 0% {transform: translate(0px,0px) scale(0.3,0.3);animation-timing-function: cubic-bezier(0.33,0,0.1,1)} 63.636364% {transform: translate(0px,0px) scale(1,1)} 100% {transform: translate(0px,0px) scale(1,1)}} #eJeDMkuX3B012_tr {animation: eJeDMkuX3B012_tr__tr 1100ms linear 1 normal forwards}@keyframes eJeDMkuX3B012_tr__tr { 0% {transform: translate(0px,0px) rotate(180deg);animation-timing-function: cubic-bezier(0.33,0,0.1,1)} 63.636364% {transform: translate(0px,0px) rotate(0deg)} 100% {transform: translate(0px,0px) rotate(0deg)}} #eJeDMkuX3B014 {animation: eJeDMkuX3B014_s_da 1100ms linear 1 normal forwards}@keyframes eJeDMkuX3B014_s_da { 0% {stroke-dasharray: 0, 0, 0, 800.31} 33.272727% {stroke-dasharray: 0, 0, 800.3, 0} 100% {stroke-dasharray: 0, 0, 800.3, 0}} #eJeDMkuX3B017_ts {animation: eJeDMkuX3B017_ts__ts 1100ms linear 1 normal forwards}@keyframes eJeDMkuX3B017_ts__ts { 0% {transform: translate(0px,0px) scale(0.3,0.3);animation-timing-function: cubic-bezier(0.33,0,0.1,1)} 63.636364% {transform: translate(0px,0px) scale(1,1)} 100% {transform: translate(0px,0px) scale(1,1)}} #eJeDMkuX3B018_tr {animation: eJeDMkuX3B018_tr__tr 1100ms linear 1 normal forwards}@keyframes eJeDMkuX3B018_tr__tr { 0% {transform: translate(0px,0px) rotate(180deg);animation-timing-function: cubic-bezier(0.33,0,0.1,1)} 63.636364% {transform: translate(0px,0px) rotate(0deg)} 100% {transform: translate(0px,0px) rotate(0deg)}} #eJeDMkuX3B023_ts {animation: eJeDMkuX3B023_ts__ts 1100ms linear 1 normal forwards}@keyframes eJeDMkuX3B023_ts__ts { 0% {transform: translate(0px,0px) scale(0.3,0.3);animation-timing-function: cubic-bezier(0.33,0,0.1,1)} 90.909091% {transform: translate(0px,0px) scale(1,1)} 100% {transform: translate(0px,0px) scale(1,1)}} #eJeDMkuX3B024_tr {animation: eJeDMkuX3B024_tr__tr 1100ms linear 1 normal forwards}@keyframes eJeDMkuX3B024_tr__tr { 0% {transform: translate(0px,0px) rotate(180deg);animation-timing-function: cubic-bezier(0.33,0,0.1,1)} 90.909091% {transform: translate(0px,0px) rotate(0deg)} 100% {transform: translate(0px,0px) rotate(0deg)}} #eJeDMkuX3B026 {animation-name: eJeDMkuX3B026_c_o, eJeDMkuX3B026_s_da;animation-duration: 1100ms;animation-fill-mode: forwards;animation-timing-function: linear;animation-direction: normal;animation-iteration-count: 1;}@keyframes eJeDMkuX3B026_c_o { 0% {opacity: 0} 18.181818% {opacity: 0} 36.363636% {opacity: 1} 100% {opacity: 1}}@keyframes eJeDMkuX3B026_s_da { 0% {stroke-dasharray: 0, 0, 0, 958.01} 18.181818% {stroke-dasharray: 0, 0, 0, 958.01;animation-timing-function: cubic-bezier(0,0,0.58,1)} 54.545455% {stroke-dasharray: 0, 0, 613.12, 344.89} 100% {stroke-dasharray: 0, 0, 613.12, 344.89}}
]]></style>
<defs><linearGradient id="eJeDMkuX3B08-fill" x1="0.002444" y1="0.879222" x2="0.935488" y2="0.283411" spreadMethod="pad" gradientUnits="objectBoundingBox" gradientTransform="translate(0 0)"><stop id="eJeDMkuX3B08-fill-0" offset="0%" stop-color="#7e52ff"/><stop id="eJeDMkuX3B08-fill-1" offset="100%" stop-color="#271e84"/></linearGradient><linearGradient id="eJeDMkuX3B014-stroke" x1="-194" y1="208" x2="130" y2="32" spreadMethod="pad" gradientUnits="userSpaceOnUse" gradientTransform="translate(0 0)"><stop id="eJeDMkuX3B014-stroke-0" offset="0%" stop-color="#a07dfd"/><stop id="eJeDMkuX3B014-stroke-1" offset="21.4%" stop-color="#7a65ed"/><stop id="eJeDMkuX3B014-stroke-2" offset="42.8%" stop-color="#554edd"/><stop id="eJeDMkuX3B014-stroke-3" offset="71.4%" stop-color="#3f37b2"/><stop id="eJeDMkuX3B014-stroke-4" offset="100%" stop-color="#292087"/></linearGradient><linearGradient id="eJeDMkuX3B020-fill" x1="0.075092" y1="0.038806" x2="0.929569" y2="0.855323" spreadMethod="pad" gradientUnits="objectBoundingBox" gradientTransform="translate(0 0)"><stop id="eJeDMkuX3B020-fill-0" offset="0%" stop-color="#fe8f64"/><stop id="eJeDMkuX3B020-fill-1" offset="14%" stop-color="#fd6051"/><stop id="eJeDMkuX3B020-fill-2" offset="44.8125%" stop-color="#fa2c6e"/><stop id="eJeDMkuX3B020-fill-3" offset="100%" stop-color="#b324ff"/></linearGradient><linearGradient id="eJeDMkuX3B026-stroke" x1="204" y1="102" x2="-210" y2="-210" spreadMethod="pad" gradientUnits="userSpaceOnUse" gradientTransform="translate(0 0)"><stop id="eJeDMkuX3B026-stroke-0" offset="0%" stop-color="#bb47f8"/><stop id="eJeDMkuX3B026-stroke-1" offset="21.9%" stop-color="#d450c6"/><stop id="eJeDMkuX3B026-stroke-2" offset="43.8%" stop-color="#ee5994"/><stop id="eJeDMkuX3B026-stroke-3" offset="71.9%" stop-color="#f7847c"/><stop id="eJeDMkuX3B026-stroke-4" offset="100%" stop-color="#ffaf65"/></linearGradient></defs><g transform="matrix(.895772 0 0 0.895772-41.700418-186.91058)"><g mask="url(#eJeDMkuX3B09)"><g transform="matrix(2 0 0 2 506 486)"><g id="eJeDMkuX3B05_ts" transform="translate(0,0) scale(0.3,0.3)"><g transform="translate(0,0)"><g id="eJeDMkuX3B06_tr" transform="translate(0,0) rotate(180)"><g transform="translate(0,0)"><g transform="matrix(1.03 0 0 1.03-15.50324 60.75988)"><path d="M87.7,17.014C65.433,43.718,31.913,60.712,-5.576,60.712c0,0-67.132,0-67.132,0-10.237,0-18.536-8.299-18.536-18.536c0,0,0-18.005,0-18.005s0-.002,0-.002c0-46.457,37.315-84.198,83.609-84.882c0,0,44.078,0,44.078,0s0,.075,0,.075c30.525,1.538,54.801,26.776,54.801,57.684c0,7.019-1.251,13.744-3.544,19.968Z" fill="url(#eJeDMkuX3B08-fill)" fill-rule="evenodd" stroke-width="0"/></g></g></g></g></g></g><mask id="eJeDMkuX3B09" mask-type="alpha" x="-150%" y="-150%" height="400%" width="400%"><g transform="matrix(2 0 0 2 506 486)"><g id="eJeDMkuX3B011_ts" transform="translate(0,0) scale(0.3,0.3)"><g transform="translate(0,0)"><g id="eJeDMkuX3B012_tr" transform="translate(0,0) rotate(180)"><g transform="translate(0,0)"><g transform="matrix(.5 0 0 0.5-6.333 7)"><path id="eJeDMkuX3B014" d="M-400,344c0,0,680-422,680-422" paint-order="stroke fill markers" fill="none" fill-rule="evenodd" stroke="url(#eJeDMkuX3B014-stroke)" stroke-width="392" stroke-linecap="round" stroke-dasharray="0,0,0,800.31"/></g></g></g></g></g></g></mask></g><g mask="url(#eJeDMkuX3B021)"><g transform="matrix(2 0 0 2 506 486)"><g id="eJeDMkuX3B017_ts" transform="translate(0,0) scale(0.3,0.3)"><g transform="translate(0,0)"><g id="eJeDMkuX3B018_tr" transform="translate(0,0) rotate(180)"><g transform="translate(0,0)"><g transform="matrix(1.03 0 0 1.03-2.39031-23.30003)"><path d="M-84.995,-100.008c-10.236,0-18.534,8.299-18.534,18.536c0,0,0,17.96,0,17.96s0-.038,0-.038c0,46.884,38.005,84.891,84.888,84.891-.912,0-1.821.014-2.727.042c0,0,45.08,0,45.08,0s0,.075,0,.075c30.525,1.538,54.802,26.776,54.802,57.684c0,7.357-1.374,14.394-3.883,20.866c18.023-21.182,28.898-48.634,28.898-78.625c0-67.042-54.347-121.391-121.39-121.391c0,0-67.134,0-67.134,0Z" fill="url(#eJeDMkuX3B020-fill)" fill-rule="evenodd"/></g></g></g></g></g></g><mask id="eJeDMkuX3B021" mask-type="alpha" x="-150%" y="-150%" height="400%" width="400%"><g transform="matrix(2 0 0 2 506 486)"><g id="eJeDMkuX3B023_ts" transform="translate(0,0) scale(0.3,0.3)"><g transform="translate(0,0)"><g id="eJeDMkuX3B024_tr" transform="translate(0,0) rotate(180)"><g transform="translate(0,0)"><g transform="matrix(.5 0 0 0.5-55.576-38.464)"><path id="eJeDMkuX3B026" d="M410,226c0,0-764-578-764-578" opacity="0" paint-order="stroke fill markers" fill="none" fill-rule="evenodd" stroke="url(#eJeDMkuX3B026-stroke)" stroke-width="392" stroke-linecap="round" stroke-dasharray="0,0,0,958.01"/></g></g></g></g></g></g></mask></g></g><g transform="translate(5.26001 11.642182)"><g><path d="M79.79,642.72h-15.58v-41.89c0-4.52.2-9.52.59-14.99h-.39c-.81,4.3-1.55,7.39-2.2,9.28L45.8,642.73h-12.89l-16.7-47.12c-.46-1.27-1.19-4.52-2.2-9.77h-.44c.42,6.9.63,12.96.63,18.16v38.72h-14.2v-70.02h23.1l14.31,41.5c1.14,3.32,1.97,6.66,2.49,10.01h.29c.88-3.87,1.81-7.24,2.78-10.11l14.31-41.41h22.51v70.02Z" fill="#242424"/><path d="M97.8,584.81c-2.6,0-4.74-.77-6.4-2.32s-2.49-3.44-2.49-5.69.83-4.2,2.49-5.66s3.79-2.2,6.4-2.2s4.78.73,6.42,2.2c1.64,1.46,2.47,3.35,2.47,5.66s-.82,4.26-2.47,5.76c-1.64,1.5-3.78,2.25-6.42,2.25Zm7.62,57.91h-15.43v-50h15.43v50Z" fill="#242424"/><path d="M152.1,640.92c-3.48,2.02-8.51,3.03-15.09,3.03-7.68,0-13.9-2.33-18.65-6.98s-7.13-10.66-7.13-18.02c0-8.5,2.55-15.19,7.64-20.09s11.91-7.35,20.43-7.35c5.89,0,10.16.78,12.79,2.34v13.09c-3.22-2.41-6.82-3.61-10.79-3.61-4.43,0-7.93,1.29-10.52,3.88s-3.88,6.16-3.88,10.72s1.24,7.9,3.71,10.42s5.88,3.78,10.21,3.78c3.84,0,7.6-1.2,11.28-3.61v12.4Z" fill="#242424"/><path d="M190.62,606.64c-1.86-1.01-4.02-1.51-6.49-1.51-3.35,0-5.97,1.23-7.86,3.69s-2.83,5.8-2.83,10.03v23.88h-15.43v-50h15.43v9.28h.2c2.44-6.77,6.84-10.16,13.18-10.16c1.63,0,2.9.2,3.81.59v14.21Z" fill="#242424"/><path d="M217.04,643.94c-8.33,0-14.88-2.33-19.65-7.01-4.77-4.67-7.15-11.01-7.15-19.02s2.47-14.74,7.42-19.41s11.64-7.01,20.07-7.01s14.81,2.34,19.53,7.01s7.08,10.85,7.08,18.53c0,8.3-2.43,14.86-7.3,19.68s-11.53,7.23-20,7.23Zm.39-40.62c-3.65,0-6.48,1.25-8.5,3.76s-3.03,6.05-3.03,10.64c0,9.6,3.87,14.4,11.62,14.4s11.08-4.93,11.08-14.79c0-9.34-3.73-14.01-11.18-14.01Z" fill="#242424"/><path d="M246.87,641.41v-12.5c2.54,1.53,5.07,2.67,7.59,3.42s4.91,1.12,7.15,1.12c2.73,0,4.89-.37,6.47-1.12s2.37-1.89,2.37-3.42c0-.98-.36-1.79-1.07-2.44-.72-.65-1.64-1.22-2.76-1.71s-2.35-.93-3.69-1.32c-1.33-.39-2.62-.83-3.86-1.32-1.99-.75-3.74-1.55-5.25-2.42-1.51-.86-2.78-1.86-3.81-3s-1.81-2.46-2.34-3.96c-.54-1.5-.81-3.27-.81-5.32c0-2.8.61-5.21,1.83-7.23s2.85-3.67,4.88-4.96s4.36-2.23,6.98-2.83s5.35-.9,8.18-.9c2.21,0,4.46.17,6.74.51s4.52.84,6.74,1.49v11.91c-1.95-1.14-4.04-1.99-6.27-2.56s-4.42-.85-6.57-.85c-1.01,0-1.96.09-2.86.27s-1.68.44-2.37.78-1.22.78-1.61,1.32-.59,1.15-.59,1.83c0,.91.29,1.69.88,2.34s1.35,1.21,2.29,1.68s1.99.9,3.15,1.27c1.16.38,2.3.76,3.44,1.15c2.05.72,3.91,1.5,5.57,2.34c1.66.85,3.08,1.84,4.27,2.98s2.1,2.47,2.73,4s.95,3.35.95,5.47c0,2.96-.64,5.49-1.93,7.59s-3,3.81-5.13,5.13-4.59,2.28-7.37,2.88-5.67.9-8.67.9c-5.5,0-10.6-.85-15.28-2.54Z" fill="#242424"/><path d="M313.76,643.94c-8.33,0-14.88-2.33-19.65-7.01-4.77-4.67-7.15-11.01-7.15-19.02s2.47-14.74,7.42-19.41s11.64-7.01,20.07-7.01s14.81,2.34,19.53,7.01s7.08,10.85,7.08,18.53c0,8.3-2.43,14.86-7.3,19.68s-11.53,7.23-20,7.23Zm.39-40.62c-3.65,0-6.48,1.25-8.5,3.76s-3.03,6.05-3.03,10.64c0,9.6,3.87,14.4,11.62,14.4s11.08-4.93,11.08-14.79c0-9.34-3.73-14.01-11.18-14.01Z" fill="#242424"/><path d="M377.97,580.52c-1.99-.78-3.89-1.17-5.71-1.17-4.95,0-7.42,2.69-7.42,8.06v5.32h11.43v11.38h-11.43v38.62h-15.38v-38.62h-8.4v-11.38h8.4v-6.2c0-5.7,1.86-10.29,5.57-13.77s8.76-5.22,15.14-5.22c3.12,0,5.73.33,7.81.98v12.01Z" fill="#242424"/><path d="M411.62,642.14c-2.28,1.2-5.71,1.81-10.3,1.81-10.87,0-16.31-5.65-16.31-16.94v-22.9h-8.11v-11.38h8.11v-10.79l15.38-4.39v15.19h11.23v11.38h-11.23v20.21c0,5.21,2.07,7.81,6.2,7.81c1.63,0,3.3-.47,5.03-1.42v11.43Z" fill="#242424"/><path d="M441.01,642.72v-70.02h24.8c24.87,0,37.3,11.38,37.3,34.13c0,10.91-3.39,19.61-10.18,26.12s-15.83,9.77-27.12,9.77h-24.8Zm15.77-57.18v44.38h7.81c6.84,0,12.2-2.05,16.09-6.15s5.83-9.68,5.83-16.75c0-6.67-1.93-11.92-5.79-15.75-3.86-3.82-9.27-5.74-16.24-5.74h-7.71Z" fill="#242424"/><path d="M553.95,622.12h-32.62c.52,7.26,5.09,10.89,13.72,10.89c5.5,0,10.33-1.3,14.5-3.91v11.13c-4.62,2.47-10.63,3.71-18.02,3.71-8.07,0-14.34-2.24-18.8-6.71-4.46-4.48-6.69-10.72-6.69-18.73s2.41-14.88,7.23-19.73s10.74-7.28,17.77-7.28s12.93,2.17,16.92,6.49c3.99,4.33,5.98,10.21,5.98,17.63v6.49Zm-14.31-9.47c0-7.16-2.9-10.74-8.69-10.74-2.47,0-4.61,1.03-6.42,3.08s-2.91,4.61-3.3,7.67h18.41Z" fill="#242424"/><path d="M555.65,641.41v-12.5c2.54,1.53,5.07,2.67,7.59,3.42s4.91,1.12,7.15,1.12c2.73,0,4.89-.37,6.47-1.12s2.37-1.89,2.37-3.42c0-.98-.36-1.79-1.07-2.44-.72-.65-1.64-1.22-2.76-1.71s-2.35-.93-3.69-1.32c-1.33-.39-2.62-.83-3.86-1.32-1.99-.75-3.74-1.55-5.25-2.42-1.51-.86-2.78-1.86-3.81-3s-1.81-2.46-2.34-3.96c-.54-1.5-.81-3.27-.81-5.32c0-2.8.61-5.21,1.83-7.23s2.85-3.67,4.88-4.96s4.36-2.23,6.98-2.83s5.35-.9,8.18-.9c2.21,0,4.46.17,6.74.51s4.52.84,6.74,1.49v11.91c-1.95-1.14-4.04-1.99-6.27-2.56s-4.42-.85-6.57-.85c-1.01,0-1.96.09-2.86.27s-1.68.44-2.37.78-1.22.78-1.61,1.32-.59,1.15-.59,1.83c0,.91.29,1.69.88,2.34s1.35,1.21,2.29,1.68s1.99.9,3.15,1.27c1.16.38,2.3.76,3.44,1.15c2.05.72,3.91,1.5,5.57,2.34c1.66.85,3.08,1.84,4.27,2.98s2.1,2.47,2.73,4s.95,3.35.95,5.47c0,2.96-.64,5.49-1.93,7.59s-3,3.81-5.13,5.13-4.59,2.28-7.37,2.88-5.67.9-8.67.9c-5.5,0-10.6-.85-15.28-2.54Z" fill="#242424"/><path d="M606.53,584.81c-2.6,0-4.74-.77-6.4-2.32s-2.49-3.44-2.49-5.69.83-4.2,2.49-5.66s3.79-2.2,6.4-2.2s4.78.73,6.42,2.2c1.64,1.46,2.47,3.35,2.47,5.66s-.82,4.26-2.47,5.76c-1.64,1.5-3.78,2.25-6.42,2.25Zm7.62,57.91h-15.43v-50h15.43v50Z" fill="#242424"/><path d="M671.96,637.01c0,9.28-2.69,16.46-8.06,21.56s-13.15,7.64-23.34,7.64c-6.74,0-12.08-.96-16.02-2.88v-12.99c5.14,3,10.33,4.49,15.58,4.49s9.24-1.38,12.11-4.13c2.86-2.75,4.3-6.49,4.3-11.21v-3.96h-.2c-3.52,5.6-8.71,8.4-15.58,8.4-6.38,0-11.44-2.25-15.19-6.74-3.74-4.49-5.62-10.51-5.62-18.07c0-8.46,2.08-15.19,6.25-20.17s9.65-7.47,16.46-7.47c6.09,0,10.64,2.34,13.67,7.03h.2v-5.81h15.43v44.29ZM656.73,618.7v-3.96c0-3.16-.94-5.85-2.81-8.08s-4.31-3.34-7.3-3.34c-3.42,0-6.1,1.33-8.06,4-1.95,2.67-2.93,6.43-2.93,11.28c0,4.17.93,7.46,2.78,9.89c1.86,2.43,4.39,3.64,7.62,3.64s5.77-1.23,7.74-3.69s2.95-5.7,2.95-9.74Z" fill="#242424"/><path d="M728.94,642.72h-15.38v-27.78c0-7.75-2.77-11.62-8.3-11.62-2.67,0-4.87,1.03-6.59,3.08-1.73,2.05-2.59,4.66-2.59,7.81v28.52h-15.43v-50h15.43v7.91h.2c3.68-6.09,9.03-9.13,16.06-9.13c11.07,0,16.6,6.87,16.6,20.61v30.62Z" fill="#242424"/><path d="M781.87,622.12h-32.62c.52,7.26,5.09,10.89,13.72,10.89c5.5,0,10.33-1.3,14.5-3.91v11.13c-4.62,2.47-10.63,3.71-18.02,3.71-8.07,0-14.34-2.24-18.8-6.71-4.46-4.48-6.69-10.72-6.69-18.73s2.41-14.88,7.23-19.73s10.74-7.28,17.77-7.28s12.93,2.17,16.92,6.49c3.99,4.33,5.98,10.21,5.98,17.63v6.49Zm-14.31-9.47c0-7.16-2.9-10.74-8.69-10.74-2.47,0-4.61,1.03-6.42,3.08s-2.91,4.61-3.3,7.67h18.41Z" fill="#242424"/><path d="M819.47,606.64c-1.86-1.01-4.02-1.51-6.49-1.51-3.35,0-5.97,1.23-7.86,3.69s-2.83,5.8-2.83,10.03v23.88h-15.43v-50h15.43v9.28h.2c2.44-6.77,6.84-10.16,13.18-10.16c1.63,0,2.9.2,3.81.59v14.21Z" fill="#242424"/></g></g></svg>
